solid OpenSCAD_Model
  facet normal 0 0 1
    outer loop
      vertex 7.9 7.9 9.6
      vertex 6.4 4 9.6
      vertex 7.9 0.0999994 9.6
    endloop
  endfacet
  facet normal 0 0 1
    outer loop
      vertex 7.9 7.9 9.6
      vertex 6.35388 4.46822 9.6
      vertex 6.4 4 9.6
    endloop
  endfacet
  facet normal 0 0 1
    outer loop
      vertex 7.9 7.9 9.6
      vertex 6.21731 4.91844 9.6
      vertex 6.35388 4.46822 9.6
    endloop
  endfacet
  facet normal 0 0 1
    outer loop
      vertex 7.9 7.9 9.6
      vertex 5.99553 5.33337 9.6
      vertex 6.21731 4.91844 9.6
    endloop
  endfacet
  facet normal 0 0 1
    outer loop
      vertex 7.9 7.9 9.6
      vertex 5.69706 5.69706 9.6
      vertex 5.99553 5.33337 9.6
    endloop
  endfacet
  facet normal 0 0 1
    outer loop
      vertex 7.9 7.9 9.6
      vertex 5.33337 5.99553 9.6
      vertex 5.69706 5.69706 9.6
    endloop
  endfacet
  facet normal 0 0 1
    outer loop
      vertex 7.9 7.9 9.6
      vertex 4.91844 6.21731 9.6
      vertex 5.33337 5.99553 9.6
    endloop
  endfacet
  facet normal 0 0 1
    outer loop
      vertex 7.9 7.9 9.6
      vertex 4.46822 6.35388 9.6
      vertex 4.91844 6.21731 9.6
    endloop
  endfacet
  facet normal 0 0 1
    outer loop
      vertex 7.9 7.9 9.6
      vertex 4 6.4 9.6
      vertex 4.46822 6.35388 9.6
    endloop
  endfacet
  facet normal -0 0 1
    outer loop
      vertex 0.0999994 7.9 9.6
      vertex 4 6.4 9.6
      vertex 7.9 7.9 9.6
    endloop
  endfacet
  facet normal 0 0 1
    outer loop
      vertex 4 6.4 9.6
      vertex 0.0999994 7.9 9.6
      vertex 3.53178 6.35388 9.6
    endloop
  endfacet
  facet normal 0 0 1
    outer loop
      vertex 1.64612 4.46822 9.6
      vertex 0.0999994 7.9 9.6
      vertex 1.6 4 9.6
    endloop
  endfacet
  facet normal 0 0 1
    outer loop
      vertex 1.78269 4.91844 9.6
      vertex 0.0999994 7.9 9.6
      vertex 1.64612 4.46822 9.6
    endloop
  endfacet
  facet normal 0 0 1
    outer loop
      vertex 2.00447 5.33337 9.6
      vertex 0.0999994 7.9 9.6
      vertex 1.78269 4.91844 9.6
    endloop
  endfacet
  facet normal 0 0 1
    outer loop
      vertex 2.30294 5.69706 9.6
      vertex 0.0999994 7.9 9.6
      vertex 2.00447 5.33337 9.6
    endloop
  endfacet
  facet normal 0 0 1
    outer loop
      vertex 2.66663 5.99553 9.6
      vertex 0.0999994 7.9 9.6
      vertex 2.30294 5.69706 9.6
    endloop
  endfacet
  facet normal 0 0 1
    outer loop
      vertex 3.08156 6.21731 9.6
      vertex 0.0999994 7.9 9.6
      vertex 2.66663 5.99553 9.6
    endloop
  endfacet
  facet normal 0 0 1
    outer loop
      vertex 3.53178 6.35388 9.6
      vertex 0.0999994 7.9 9.6
      vertex 3.08156 6.21731 9.6
    endloop
  endfacet
  facet normal -0 0 1
    outer loop
      vertex 6.35388 3.53178 9.6
      vertex 7.9 0.0999994 9.6
      vertex 6.4 4 9.6
    endloop
  endfacet
  facet normal -0 0 1
    outer loop
      vertex 6.21731 3.08156 9.6
      vertex 7.9 0.0999994 9.6
      vertex 6.35388 3.53178 9.6
    endloop
  endfacet
  facet normal -0 0 1
    outer loop
      vertex 5.99553 2.66663 9.6
      vertex 7.9 0.0999994 9.6
      vertex 6.21731 3.08156 9.6
    endloop
  endfacet
  facet normal -0 0 1
    outer loop
      vertex 5.69706 2.30294 9.6
      vertex 7.9 0.0999994 9.6
      vertex 5.99553 2.66663 9.6
    endloop
  endfacet
  facet normal -0 0 1
    outer loop
      vertex 5.33337 2.00447 9.6
      vertex 7.9 0.0999994 9.6
      vertex 5.69706 2.30294 9.6
    endloop
  endfacet
  facet normal -0 0 1
    outer loop
      vertex 4.91844 1.78269 9.6
      vertex 7.9 0.0999994 9.6
      vertex 5.33337 2.00447 9.6
    endloop
  endfacet
  facet normal -0 0 1
    outer loop
      vertex 4.46822 1.64612 9.6
      vertex 7.9 0.0999994 9.6
      vertex 4.91844 1.78269 9.6
    endloop
  endfacet
  facet normal -0 0 1
    outer loop
      vertex 4 1.6 9.6
      vertex 7.9 0.0999994 9.6
      vertex 4.46822 1.64612 9.6
    endloop
  endfacet
  facet normal 0 0 1
    outer loop
      vertex 0.0999994 0.0999994 9.6
      vertex 4 1.6 9.6
      vertex 3.53178 1.64612 9.6
    endloop
  endfacet
  facet normal 0 0 1
    outer loop
      vertex 0.0999994 0.0999994 9.6
      vertex 3.53178 1.64612 9.6
      vertex 3.08156 1.78269 9.6
    endloop
  endfacet
  facet normal 0 0 1
    outer loop
      vertex 0.0999994 0.0999994 9.6
      vertex 1.6 4 9.6
      vertex 0.0999994 7.9 9.6
    endloop
  endfacet
  facet normal 0 0 1
    outer loop
      vertex 1.6 4 9.6
      vertex 0.0999994 0.0999994 9.6
      vertex 1.64612 3.53178 9.6
    endloop
  endfacet
  facet normal 0 0 1
    outer loop
      vertex 4 1.6 9.6
      vertex 0.0999994 0.0999994 9.6
      vertex 7.9 0.0999994 9.6
    endloop
  endfacet
  facet normal 0 0 1
    outer loop
      vertex 2.66663 2.00447 9.6
      vertex 0.0999994 0.0999994 9.6
      vertex 3.08156 1.78269 9.6
    endloop
  endfacet
  facet normal 0 0 1
    outer loop
      vertex 2.30294 2.30294 9.6
      vertex 0.0999994 0.0999994 9.6
      vertex 2.66663 2.00447 9.6
    endloop
  endfacet
  facet normal 0 0 1
    outer loop
      vertex 2.00447 2.66663 9.6
      vertex 0.0999994 0.0999994 9.6
      vertex 2.30294 2.30294 9.6
    endloop
  endfacet
  facet normal 0 0 1
    outer loop
      vertex 1.78269 3.08156 9.6
      vertex 0.0999994 0.0999994 9.6
      vertex 2.00447 2.66663 9.6
    endloop
  endfacet
  facet normal 0 0 1
    outer loop
      vertex 1.64612 3.53178 9.6
      vertex 0.0999994 0.0999994 9.6
      vertex 1.78269 3.08156 9.6
    endloop
  endfacet
  facet normal 0 0 -1
    outer loop
      vertex 2.70228 6.1944 0
      vertex 2.0371 6.63885 0
      vertex 2.06978 6.7 0
    endloop
  endfacet
  facet normal 0 0 -1
    outer loop
      vertex 1.73241 6.26759 0
      vertex 2.2981 5.7019 0
      vertex 1.8056 5.29772 0
    endloop
  endfacet
  facet normal 0 0 -1
    outer loop
      vertex 2.2981 5.7019 0
      vertex 1.73241 6.26759 0
      vertex 2.0371 6.63885 0
    endloop
  endfacet
  facet normal 0 0 -1
    outer loop
      vertex 1.8056 5.29772 0
      vertex 1.36115 5.9629 0
      vertex 1.73241 6.26759 0
    endloop
  endfacet
  facet normal 0 0 -1
    outer loop
      vertex 1.3 5.93022 0
      vertex 1.8056 5.29772 0
      vertex 1.3 5.02747 0
    endloop
  endfacet
  facet normal 0 0 -1
    outer loop
      vertex 1.8056 5.29772 0
      vertex 1.3 5.93022 0
      vertex 1.36115 5.9629 0
    endloop
  endfacet
  facet normal -0 0 -1
    outer loop
      vertex 2.70228 1.8056 0
      vertex 2.0371 1.36115 0
      vertex 2.2981 2.2981 0
    endloop
  endfacet
  facet normal 0 0 -1
    outer loop
      vertex 1.73241 1.73241 0
      vertex 2.2981 2.2981 0
      vertex 2.0371 1.36115 0
    endloop
  endfacet
  facet normal -0 0 -1
    outer loop
      vertex 2.2981 2.2981 0
      vertex 1.73241 1.73241 0
      vertex 1.8056 2.70228 0
    endloop
  endfacet
  facet normal 0 0 -1
    outer loop
      vertex 1.36115 2.0371 0
      vertex 1.8056 2.70228 0
      vertex 1.73241 1.73241 0
    endloop
  endfacet
  facet normal 0 0 -1
    outer loop
      vertex 1.3 2.06978 0
      vertex 1.8056 2.70228 0
      vertex 1.36115 2.0371 0
    endloop
  endfacet
  facet normal -0 0 -1
    outer loop
      vertex 1.8056 2.70228 0
      vertex 1.3 2.06978 0
      vertex 1.3 2.97253 0
    endloop
  endfacet
  facet normal 0 0 -1
    outer loop
      vertex 6.1944 5.29772 0
      vertex 6.7 5.93022 0
      vertex 6.7 5.02747 0
    endloop
  endfacet
  facet normal -0 0 -1
    outer loop
      vertex 6.7 5.93022 0
      vertex 6.1944 5.29772 0
      vertex 6.63885 5.9629 0
    endloop
  endfacet
  facet normal -0 0 -1
    outer loop
      vertex 6.63885 5.9629 0
      vertex 6.1944 5.29772 0
      vertex 6.26759 6.26759 0
    endloop
  endfacet
  facet normal 0 0 -1
    outer loop
      vertex 5.7019 5.7019 0
      vertex 6.26759 6.26759 0
      vertex 6.1944 5.29772 0
    endloop
  endfacet
  facet normal -0 0 -1
    outer loop
      vertex 6.26759 6.26759 0
      vertex 5.7019 5.7019 0
      vertex 5.9629 6.63885 0
    endloop
  endfacet
  facet normal 0 0 -1
    outer loop
      vertex 5.29772 6.1944 0
      vertex 5.9629 6.63885 0
      vertex 5.7019 5.7019 0
    endloop
  endfacet
  facet normal 0 0 -1
    outer loop
      vertex 6.1944 2.70228 0
      vertex 6.7 2.06978 0
      vertex 6.63885 2.0371 0
    endloop
  endfacet
  facet normal 0 0 -1
    outer loop
      vertex 6.1944 2.70228 0
      vertex 6.63885 2.0371 0
      vertex 6.26759 1.73241 0
    endloop
  endfacet
  facet normal 0 0 -1
    outer loop
      vertex 6.7 2.06978 0
      vertex 6.1944 2.70228 0
      vertex 6.7 2.97253 0
    endloop
  endfacet
  facet normal 0 0 -1
    outer loop
      vertex 5.7019 2.2981 0
      vertex 6.26759 1.73241 0
      vertex 5.9629 1.36115 0
    endloop
  endfacet
  facet normal 0 0 -1
    outer loop
      vertex 5.29772 1.8056 0
      vertex 5.9629 1.36115 0
      vertex 5.93022 1.3 0
    endloop
  endfacet
  facet normal 0 0 -1
    outer loop
      vertex 6.26759 1.73241 0
      vertex 5.7019 2.2981 0
      vertex 6.1944 2.70228 0
    endloop
  endfacet
  facet normal 0 0 -1
    outer loop
      vertex 6.7 2.06978 0
      vertex 7.9 0.0999994 0
      vertex 6.7 1.3 0
    endloop
  endfacet
  facet normal 0 0 -1
    outer loop
      vertex 7.9 0.0999994 0
      vertex 5.93022 1.3 0
      vertex 6.7 1.3 0
    endloop
  endfacet
  facet normal 0 0 -1
    outer loop
      vertex 5.9629 1.36115 0
      vertex 5.29772 1.8056 0
      vertex 5.7019 2.2981 0
    endloop
  endfacet
  facet normal 0 0 -1
    outer loop
      vertex 5.93022 1.3 0
      vertex 5.02747 1.3 0
      vertex 5.29772 1.8056 0
    endloop
  endfacet
  facet normal 0 0 -1
    outer loop
      vertex 7.9 0.0999994 0
      vertex 5.02747 1.3 0
      vertex 5.93022 1.3 0
    endloop
  endfacet
  facet normal 0 0 -1
    outer loop
      vertex 7.9 0.0999994 0
      vertex 2.97253 1.3 0
      vertex 5.02747 1.3 0
    endloop
  endfacet
  facet normal 0 0 -1
    outer loop
      vertex 2.06978 1.3 0
      vertex 2.70228 1.8056 0
      vertex 2.97253 1.3 0
    endloop
  endfacet
  facet normal 0 0 -1
    outer loop
      vertex 2.0371 1.36115 0
      vertex 2.70228 1.8056 0
      vertex 2.06978 1.3 0
    endloop
  endfacet
  facet normal 0 0 -1
    outer loop
      vertex 0.0999994 0.0999994 0
      vertex 2.97253 1.3 0
      vertex 7.9 0.0999994 0
    endloop
  endfacet
  facet normal -0 0 -1
    outer loop
      vertex 2.97253 1.3 0
      vertex 0.0999994 0.0999994 0
      vertex 2.06978 1.3 0
    endloop
  endfacet
  facet normal 0 0 -1
    outer loop
      vertex 0.0999994 0.0999994 0
      vertex 1.3 2.06978 0
      vertex 1.3 1.3 0
    endloop
  endfacet
  facet normal -0 0 -1
    outer loop
      vertex 1.3 2.06978 0
      vertex 0.0999994 0.0999994 0
      vertex 1.3 2.97253 0
    endloop
  endfacet
  facet normal -0 0 -1
    outer loop
      vertex 1.3 2.97253 0
      vertex 0.0999994 0.0999994 0
      vertex 1.3 5.02747 0
    endloop
  endfacet
  facet normal 0 0 -1
    outer loop
      vertex 0.0999994 7.9 0
      vertex 1.3 5.02747 0
      vertex 0.0999994 0.0999994 0
    endloop
  endfacet
  facet normal 0 0 -1
    outer loop
      vertex 1.3 5.02747 0
      vertex 0.0999994 7.9 0
      vertex 1.3 5.93022 0
    endloop
  endfacet
  facet normal -0 0 -1
    outer loop
      vertex 2.06978 1.3 0
      vertex 0.0999994 0.0999994 0
      vertex 1.3 1.3 0
    endloop
  endfacet
  facet normal 0 0 -1
    outer loop
      vertex 6.7 2.97253 0
      vertex 7.9 0.0999994 0
      vertex 6.7 2.06978 0
    endloop
  endfacet
  facet normal 0 0 -1
    outer loop
      vertex 7.9 0.0999994 0
      vertex 6.7 2.97253 0
      vertex 7.9 7.9 0
    endloop
  endfacet
  facet normal 0 0 -1
    outer loop
      vertex 6.7 5.02747 0
      vertex 7.9 7.9 0
      vertex 6.7 2.97253 0
    endloop
  endfacet
  facet normal 0 0 -1
    outer loop
      vertex 6.7 5.93022 0
      vertex 7.9 7.9 0
      vertex 6.7 5.02747 0
    endloop
  endfacet
  facet normal 0 0 -1
    outer loop
      vertex 6.7 6.7 0
      vertex 7.9 7.9 0
      vertex 6.7 5.93022 0
    endloop
  endfacet
  facet normal 0 0 -1
    outer loop
      vertex 5.93022 6.7 0
      vertex 7.9 7.9 0
      vertex 6.7 6.7 0
    endloop
  endfacet
  facet normal -0 0 -1
    outer loop
      vertex 5.9629 6.63885 0
      vertex 5.29772 6.1944 0
      vertex 5.93022 6.7 0
    endloop
  endfacet
  facet normal 0 0 -1
    outer loop
      vertex 5.02747 6.7 0
      vertex 5.93022 6.7 0
      vertex 5.29772 6.1944 0
    endloop
  endfacet
  facet normal 0 0 -1
    outer loop
      vertex 5.02747 6.7 0
      vertex 7.9 7.9 0
      vertex 5.93022 6.7 0
    endloop
  endfacet
  facet normal 0 0 -1
    outer loop
      vertex 2.97253 6.7 0
      vertex 7.9 7.9 0
      vertex 5.02747 6.7 0
    endloop
  endfacet
  facet normal 0 0 -1
    outer loop
      vertex 2.0371 6.63885 0
      vertex 2.70228 6.1944 0
      vertex 2.2981 5.7019 0
    endloop
  endfacet
  facet normal 0 0 -1
    outer loop
      vertex 2.70228 6.1944 0
      vertex 2.06978 6.7 0
      vertex 2.97253 6.7 0
    endloop
  endfacet
  facet normal 0 0 -1
    outer loop
      vertex 0.0999994 7.9 0
      vertex 2.97253 6.7 0
      vertex 2.06978 6.7 0
    endloop
  endfacet
  facet normal 0 0 -1
    outer loop
      vertex 0.0999994 7.9 0
      vertex 2.06978 6.7 0
      vertex 1.3 6.7 0
    endloop
  endfacet
  facet normal 0 0 -1
    outer loop
      vertex 2.97253 6.7 0
      vertex 0.0999994 7.9 0
      vertex 7.9 7.9 0
    endloop
  endfacet
  facet normal 0 0 -1
    outer loop
      vertex 1.3 5.93022 0
      vertex 0.0999994 7.9 0
      vertex 1.3 6.7 0
    endloop
  endfacet
  facet normal 0.881921 0.471396 0
    outer loop
      vertex 6.21731 4.91844 11.4
      vertex 5.99553 5.33337 9.6
      vertex 5.99553 5.33337 11.4
    endloop
  endfacet
  facet normal 0.881921 0.471396 0
    outer loop
      vertex 5.99553 5.33337 9.6
      vertex 6.21731 4.91844 11.4
      vertex 6.21731 4.91844 9.6
    endloop
  endfacet
  facet normal -0.995185 0.0980185 0
    outer loop
      vertex 1.6 4 9.6
      vertex 1.64612 4.46822 11.4
      vertex 1.64612 4.46822 9.6
    endloop
  endfacet
  facet normal -0.995185 0.0980185 0
    outer loop
      vertex 1.64612 4.46822 11.4
      vertex 1.6 4 9.6
      vertex 1.6 4 11.4
    endloop
  endfacet
  facet normal 0.773011 0.634393 0
    outer loop
      vertex 5.99553 5.33337 11.4
      vertex 5.69706 5.69706 9.6
      vertex 5.69706 5.69706 11.4
    endloop
  endfacet
  facet normal 0.773011 0.634393 0
    outer loop
      vertex 5.69706 5.69706 9.6
      vertex 5.99553 5.33337 11.4
      vertex 5.99553 5.33337 9.6
    endloop
  endfacet
  facet normal 0.290284 0.95694 -0
    outer loop
      vertex 4.91844 6.21731 9.6
      vertex 4.46822 6.35388 11.4
      vertex 4.91844 6.21731 11.4
    endloop
  endfacet
  facet normal 0.290284 0.95694 0
    outer loop
      vertex 4.46822 6.35388 11.4
      vertex 4.91844 6.21731 9.6
      vertex 4.46822 6.35388 9.6
    endloop
  endfacet
  facet normal -0.471396 0.881921 0
    outer loop
      vertex 3.08156 6.21731 9.6
      vertex 2.66663 5.99553 11.4
      vertex 3.08156 6.21731 11.4
    endloop
  endfacet
  facet normal -0.471396 0.881921 0
    outer loop
      vertex 2.66663 5.99553 11.4
      vertex 3.08156 6.21731 9.6
      vertex 2.66663 5.99553 9.6
    endloop
  endfacet
  facet normal -0.95694 0.290284 0
    outer loop
      vertex 1.64612 4.46822 9.6
      vertex 1.78269 4.91844 11.4
      vertex 1.78269 4.91844 9.6
    endloop
  endfacet
  facet normal -0.95694 0.290284 0
    outer loop
      vertex 1.78269 4.91844 11.4
      vertex 1.64612 4.46822 9.6
      vertex 1.64612 4.46822 11.4
    endloop
  endfacet
  facet normal 0.995185 -0.0980183 0
    outer loop
      vertex 6.35388 3.53178 11.4
      vertex 6.4 4 9.6
      vertex 6.4 4 11.4
    endloop
  endfacet
  facet normal 0.995185 -0.0980183 0
    outer loop
      vertex 6.4 4 9.6
      vertex 6.35388 3.53178 11.4
      vertex 6.35388 3.53178 9.6
    endloop
  endfacet
  facet normal 0.95694 0.290284 0
    outer loop
      vertex 6.35388 4.46822 11.4
      vertex 6.21731 4.91844 9.6
      vertex 6.21731 4.91844 11.4
    endloop
  endfacet
  facet normal 0.95694 0.290284 0
    outer loop
      vertex 6.21731 4.91844 9.6
      vertex 6.35388 4.46822 11.4
      vertex 6.35388 4.46822 9.6
    endloop
  endfacet
  facet normal 0.634393 0.773011 -0
    outer loop
      vertex 5.69706 5.69706 9.6
      vertex 5.33337 5.99553 11.4
      vertex 5.69706 5.69706 11.4
    endloop
  endfacet
  facet normal 0.634393 0.773011 0
    outer loop
      vertex 5.33337 5.99553 11.4
      vertex 5.69706 5.69706 9.6
      vertex 5.33337 5.99553 9.6
    endloop
  endfacet
  facet normal -0.0980183 0.995185 0
    outer loop
      vertex 4 6.4 9.6
      vertex 3.53178 6.35388 11.4
      vertex 4 6.4 11.4
    endloop
  endfacet
  facet normal -0.0980183 0.995185 0
    outer loop
      vertex 3.53178 6.35388 11.4
      vertex 4 6.4 9.6
      vertex 3.53178 6.35388 9.6
    endloop
  endfacet
  facet normal 0.471396 0.881921 -0
    outer loop
      vertex 5.33337 5.99553 9.6
      vertex 4.91844 6.21731 11.4
      vertex 5.33337 5.99553 11.4
    endloop
  endfacet
  facet normal 0.471396 0.881921 0
    outer loop
      vertex 4.91844 6.21731 11.4
      vertex 5.33337 5.99553 9.6
      vertex 4.91844 6.21731 9.6
    endloop
  endfacet
  facet normal -0.995185 -0.0980183 0
    outer loop
      vertex 1.64612 3.53178 9.6
      vertex 1.6 4 11.4
      vertex 1.6 4 9.6
    endloop
  endfacet
  facet normal -0.995185 -0.0980183 0
    outer loop
      vertex 1.6 4 11.4
      vertex 1.64612 3.53178 9.6
      vertex 1.64612 3.53178 11.4
    endloop
  endfacet
  facet normal -0.881921 0.471396 0
    outer loop
      vertex 1.78269 4.91844 9.6
      vertex 2.00447 5.33337 11.4
      vertex 2.00447 5.33337 9.6
    endloop
  endfacet
  facet normal -0.881921 0.471396 0
    outer loop
      vertex 2.00447 5.33337 11.4
      vertex 1.78269 4.91844 9.6
      vertex 1.78269 4.91844 11.4
    endloop
  endfacet
  facet normal -0.634393 0.773011 0
    outer loop
      vertex 2.66663 5.99553 9.6
      vertex 2.30294 5.69706 11.4
      vertex 2.66663 5.99553 11.4
    endloop
  endfacet
  facet normal -0.634393 0.773011 0
    outer loop
      vertex 2.30294 5.69706 11.4
      vertex 2.66663 5.99553 9.6
      vertex 2.30294 5.69706 9.6
    endloop
  endfacet
  facet normal -0.290284 0.95694 0
    outer loop
      vertex 3.53178 6.35388 9.6
      vertex 3.08156 6.21731 11.4
      vertex 3.53178 6.35388 11.4
    endloop
  endfacet
  facet normal -0.290284 0.95694 0
    outer loop
      vertex 3.08156 6.21731 11.4
      vertex 3.53178 6.35388 9.6
      vertex 3.08156 6.21731 9.6
    endloop
  endfacet
  facet normal -0.773011 0.634393 0
    outer loop
      vertex 2.00447 5.33337 9.6
      vertex 2.30294 5.69706 11.4
      vertex 2.30294 5.69706 9.6
    endloop
  endfacet
  facet normal -0.773011 0.634393 0
    outer loop
      vertex 2.30294 5.69706 11.4
      vertex 2.00447 5.33337 9.6
      vertex 2.00447 5.33337 11.4
    endloop
  endfacet
  facet normal 0.995185 0.0980185 0
    outer loop
      vertex 6.4 4 11.4
      vertex 6.35388 4.46822 9.6
      vertex 6.35388 4.46822 11.4
    endloop
  endfacet
  facet normal 0.995185 0.0980185 0
    outer loop
      vertex 6.35388 4.46822 9.6
      vertex 6.4 4 11.4
      vertex 6.4 4 9.6
    endloop
  endfacet
  facet normal -0.773011 -0.634393 0
    outer loop
      vertex 2.30294 2.30294 9.6
      vertex 2.00447 2.66663 11.4
      vertex 2.00447 2.66663 9.6
    endloop
  endfacet
  facet normal -0.773011 -0.634393 0
    outer loop
      vertex 2.00447 2.66663 11.4
      vertex 2.30294 2.30294 9.6
      vertex 2.30294 2.30294 11.4
    endloop
  endfacet
  facet normal 0.634393 -0.773011 0
    outer loop
      vertex 5.33337 2.00447 9.6
      vertex 5.69706 2.30294 11.4
      vertex 5.33337 2.00447 11.4
    endloop
  endfacet
  facet normal 0.634393 -0.773011 0
    outer loop
      vertex 5.69706 2.30294 11.4
      vertex 5.33337 2.00447 9.6
      vertex 5.69706 2.30294 9.6
    endloop
  endfacet
  facet normal 0.0980185 0.995185 -0
    outer loop
      vertex 4.46822 6.35388 9.6
      vertex 4 6.4 11.4
      vertex 4.46822 6.35388 11.4
    endloop
  endfacet
  facet normal 0.0980185 0.995185 0
    outer loop
      vertex 4 6.4 11.4
      vertex 4.46822 6.35388 9.6
      vertex 4 6.4 9.6
    endloop
  endfacet
  facet normal 0 0 1
    outer loop
      vertex 6.35388 4.46822 11.4
      vertex 6.35388 3.53178 11.4
      vertex 6.4 4 11.4
    endloop
  endfacet
  facet normal 0 0 1
    outer loop
      vertex 6.21731 4.91844 11.4
      vertex 6.35388 3.53178 11.4
      vertex 6.35388 4.46822 11.4
    endloop
  endfacet
  facet normal 0 0 1
    outer loop
      vertex 6.21731 4.91844 11.4
      vertex 6.21731 3.08156 11.4
      vertex 6.35388 3.53178 11.4
    endloop
  endfacet
  facet normal 0 0 1
    outer loop
      vertex 5.99553 5.33337 11.4
      vertex 6.21731 3.08156 11.4
      vertex 6.21731 4.91844 11.4
    endloop
  endfacet
  facet normal 0 0 1
    outer loop
      vertex 5.99553 5.33337 11.4
      vertex 5.99553 2.66663 11.4
      vertex 6.21731 3.08156 11.4
    endloop
  endfacet
  facet normal 0 0 1
    outer loop
      vertex 5.69706 5.69706 11.4
      vertex 5.99553 2.66663 11.4
      vertex 5.99553 5.33337 11.4
    endloop
  endfacet
  facet normal 0 0 1
    outer loop
      vertex 5.69706 5.69706 11.4
      vertex 5.69706 2.30294 11.4
      vertex 5.99553 2.66663 11.4
    endloop
  endfacet
  facet normal 0 0 1
    outer loop
      vertex 5.33337 5.99553 11.4
      vertex 5.69706 2.30294 11.4
      vertex 5.69706 5.69706 11.4
    endloop
  endfacet
  facet normal 0 0 1
    outer loop
      vertex 5.33337 5.99553 11.4
      vertex 5.33337 2.00447 11.4
      vertex 5.69706 2.30294 11.4
    endloop
  endfacet
  facet normal 0 0 1
    outer loop
      vertex 4.91844 6.21731 11.4
      vertex 5.33337 2.00447 11.4
      vertex 5.33337 5.99553 11.4
    endloop
  endfacet
  facet normal 0 0 1
    outer loop
      vertex 4.91844 6.21731 11.4
      vertex 4.91844 1.78269 11.4
      vertex 5.33337 2.00447 11.4
    endloop
  endfacet
  facet normal 0 0 1
    outer loop
      vertex 4.46822 6.35388 11.4
      vertex 4.91844 1.78269 11.4
      vertex 4.91844 6.21731 11.4
    endloop
  endfacet
  facet normal 0 0 1
    outer loop
      vertex 4.46822 6.35388 11.4
      vertex 4.46822 1.64612 11.4
      vertex 4.91844 1.78269 11.4
    endloop
  endfacet
  facet normal 0 0 1
    outer loop
      vertex 4 6.4 11.4
      vertex 4.46822 1.64612 11.4
      vertex 4.46822 6.35388 11.4
    endloop
  endfacet
  facet normal 0 0 1
    outer loop
      vertex 4 6.4 11.4
      vertex 4 1.6 11.4
      vertex 4.46822 1.64612 11.4
    endloop
  endfacet
  facet normal -0 0 1
    outer loop
      vertex 3.53178 6.35388 11.4
      vertex 4 1.6 11.4
      vertex 4 6.4 11.4
    endloop
  endfacet
  facet normal 0 0 1
    outer loop
      vertex 3.53178 6.35388 11.4
      vertex 3.53178 1.64612 11.4
      vertex 4 1.6 11.4
    endloop
  endfacet
  facet normal -0 0 1
    outer loop
      vertex 3.08156 6.21731 11.4
      vertex 3.53178 1.64612 11.4
      vertex 3.53178 6.35388 11.4
    endloop
  endfacet
  facet normal 0 0 1
    outer loop
      vertex 3.08156 6.21731 11.4
      vertex 3.08156 1.78269 11.4
      vertex 3.53178 1.64612 11.4
    endloop
  endfacet
  facet normal -0 0 1
    outer loop
      vertex 2.66663 5.99553 11.4
      vertex 3.08156 1.78269 11.4
      vertex 3.08156 6.21731 11.4
    endloop
  endfacet
  facet normal 0 0 1
    outer loop
      vertex 2.66663 5.99553 11.4
      vertex 2.66663 2.00447 11.4
      vertex 3.08156 1.78269 11.4
    endloop
  endfacet
  facet normal -0 0 1
    outer loop
      vertex 2.30294 5.69706 11.4
      vertex 2.66663 2.00447 11.4
      vertex 2.66663 5.99553 11.4
    endloop
  endfacet
  facet normal 0 0 1
    outer loop
      vertex 2.30294 5.69706 11.4
      vertex 2.30294 2.30294 11.4
      vertex 2.66663 2.00447 11.4
    endloop
  endfacet
  facet normal -0 0 1
    outer loop
      vertex 2.00447 5.33337 11.4
      vertex 2.30294 2.30294 11.4
      vertex 2.30294 5.69706 11.4
    endloop
  endfacet
  facet normal 0 0 1
    outer loop
      vertex 2.00447 5.33337 11.4
      vertex 2.00447 2.66663 11.4
      vertex 2.30294 2.30294 11.4
    endloop
  endfacet
  facet normal -0 0 1
    outer loop
      vertex 1.78269 4.91844 11.4
      vertex 2.00447 2.66663 11.4
      vertex 2.00447 5.33337 11.4
    endloop
  endfacet
  facet normal 0 0 1
    outer loop
      vertex 1.78269 4.91844 11.4
      vertex 1.78269 3.08156 11.4
      vertex 2.00447 2.66663 11.4
    endloop
  endfacet
  facet normal -0 0 1
    outer loop
      vertex 1.64612 4.46822 11.4
      vertex 1.78269 3.08156 11.4
      vertex 1.78269 4.91844 11.4
    endloop
  endfacet
  facet normal 0 0 1
    outer loop
      vertex 1.64612 4.46822 11.4
      vertex 1.64612 3.53178 11.4
      vertex 1.78269 3.08156 11.4
    endloop
  endfacet
  facet normal 0 -0 1
    outer loop
      vertex 1.64612 3.53178 11.4
      vertex 1.64612 4.46822 11.4
      vertex 1.6 4 11.4
    endloop
  endfacet
  facet normal 0.881921 -0.471396 0
    outer loop
      vertex 5.99553 2.66663 11.4
      vertex 6.21731 3.08156 9.6
      vertex 6.21731 3.08156 11.4
    endloop
  endfacet
  facet normal 0.881921 -0.471396 0
    outer loop
      vertex 6.21731 3.08156 9.6
      vertex 5.99553 2.66663 11.4
      vertex 5.99553 2.66663 9.6
    endloop
  endfacet
  facet normal -0.0980185 -0.995185 0
    outer loop
      vertex 3.53178 1.64612 9.6
      vertex 4 1.6 11.4
      vertex 3.53178 1.64612 11.4
    endloop
  endfacet
  facet normal -0.0980185 -0.995185 -0
    outer loop
      vertex 4 1.6 11.4
      vertex 3.53178 1.64612 9.6
      vertex 4 1.6 9.6
    endloop
  endfacet
  facet normal -0.95694 -0.290284 0
    outer loop
      vertex 1.78269 3.08156 9.6
      vertex 1.64612 3.53178 11.4
      vertex 1.64612 3.53178 9.6
    endloop
  endfacet
  facet normal -0.95694 -0.290284 0
    outer loop
      vertex 1.64612 3.53178 11.4
      vertex 1.78269 3.08156 9.6
      vertex 1.78269 3.08156 11.4
    endloop
  endfacet
  facet normal 0.290284 -0.95694 0
    outer loop
      vertex 4.46822 1.64612 9.6
      vertex 4.91844 1.78269 11.4
      vertex 4.46822 1.64612 11.4
    endloop
  endfacet
  facet normal 0.290284 -0.95694 0
    outer loop
      vertex 4.91844 1.78269 11.4
      vertex 4.46822 1.64612 9.6
      vertex 4.91844 1.78269 9.6
    endloop
  endfacet
  facet normal 0.471396 -0.881921 0
    outer loop
      vertex 4.91844 1.78269 9.6
      vertex 5.33337 2.00447 11.4
      vertex 4.91844 1.78269 11.4
    endloop
  endfacet
  facet normal 0.471396 -0.881921 0
    outer loop
      vertex 5.33337 2.00447 11.4
      vertex 4.91844 1.78269 9.6
      vertex 5.33337 2.00447 9.6
    endloop
  endfacet
  facet normal 0.95694 -0.290284 0
    outer loop
      vertex 6.21731 3.08156 11.4
      vertex 6.35388 3.53178 9.6
      vertex 6.35388 3.53178 11.4
    endloop
  endfacet
  facet normal 0.95694 -0.290284 0
    outer loop
      vertex 6.35388 3.53178 9.6
      vertex 6.21731 3.08156 11.4
      vertex 6.21731 3.08156 9.6
    endloop
  endfacet
  facet normal 0.0980183 -0.995185 0
    outer loop
      vertex 4 1.6 9.6
      vertex 4.46822 1.64612 11.4
      vertex 4 1.6 11.4
    endloop
  endfacet
  facet normal 0.0980183 -0.995185 0
    outer loop
      vertex 4.46822 1.64612 11.4
      vertex 4 1.6 9.6
      vertex 4.46822 1.64612 9.6
    endloop
  endfacet
  facet normal -0.471396 -0.881921 0
    outer loop
      vertex 2.66663 2.00447 9.6
      vertex 3.08156 1.78269 11.4
      vertex 2.66663 2.00447 11.4
    endloop
  endfacet
  facet normal -0.471396 -0.881921 -0
    outer loop
      vertex 3.08156 1.78269 11.4
      vertex 2.66663 2.00447 9.6
      vertex 3.08156 1.78269 9.6
    endloop
  endfacet
  facet normal -0.290284 -0.95694 0
    outer loop
      vertex 3.08156 1.78269 9.6
      vertex 3.53178 1.64612 11.4
      vertex 3.08156 1.78269 11.4
    endloop
  endfacet
  facet normal -0.290284 -0.95694 -0
    outer loop
      vertex 3.53178 1.64612 11.4
      vertex 3.08156 1.78269 9.6
      vertex 3.53178 1.64612 9.6
    endloop
  endfacet
  facet normal -0.881921 -0.471396 0
    outer loop
      vertex 2.00447 2.66663 9.6
      vertex 1.78269 3.08156 11.4
      vertex 1.78269 3.08156 9.6
    endloop
  endfacet
  facet normal -0.881921 -0.471396 0
    outer loop
      vertex 1.78269 3.08156 11.4
      vertex 2.00447 2.66663 9.6
      vertex 2.00447 2.66663 11.4
    endloop
  endfacet
  facet normal -0.634393 -0.773011 0
    outer loop
      vertex 2.30294 2.30294 9.6
      vertex 2.66663 2.00447 11.4
      vertex 2.30294 2.30294 11.4
    endloop
  endfacet
  facet normal -0.634393 -0.773011 -0
    outer loop
      vertex 2.66663 2.00447 11.4
      vertex 2.30294 2.30294 9.6
      vertex 2.66663 2.00447 9.6
    endloop
  endfacet
  facet normal 0.773011 -0.634393 0
    outer loop
      vertex 5.69706 2.30294 11.4
      vertex 5.99553 2.66663 9.6
      vertex 5.99553 2.66663 11.4
    endloop
  endfacet
  facet normal 0.773011 -0.634393 0
    outer loop
      vertex 5.99553 2.66663 9.6
      vertex 5.69706 2.30294 11.4
      vertex 5.69706 2.30294 9.6
    endloop
  endfacet
  facet normal 0.471397 0.881921 -0
    outer loop
      vertex 1.8056 2.70228 0
      vertex 1.3 2.97253 3
      vertex 1.8056 2.70228 3
    endloop
  endfacet
  facet normal 0.471397 0.881921 0
    outer loop
      vertex 1.3 2.97253 3
      vertex 1.8056 2.70228 0
      vertex 1.3 2.97253 0
    endloop
  endfacet
  facet normal 0.881921 0.471397 0
    outer loop
      vertex 2.97253 1.3 3
      vertex 2.70228 1.8056 0
      vertex 2.70228 1.8056 3
    endloop
  endfacet
  facet normal 0.881921 0.471397 0
    outer loop
      vertex 2.70228 1.8056 0
      vertex 2.97253 1.3 3
      vertex 2.97253 1.3 0
    endloop
  endfacet
  facet normal 0.77301 0.634394 0
    outer loop
      vertex 2.70228 1.8056 3
      vertex 2.2981 2.2981 0
      vertex 2.2981 2.2981 3
    endloop
  endfacet
  facet normal 0.77301 0.634394 0
    outer loop
      vertex 2.2981 2.2981 0
      vertex 2.70228 1.8056 3
      vertex 2.70228 1.8056 0
    endloop
  endfacet
  facet normal 0.634394 0.77301 -0
    outer loop
      vertex 2.2981 2.2981 0
      vertex 1.8056 2.70228 3
      vertex 2.2981 2.2981 3
    endloop
  endfacet
  facet normal 0.634394 0.77301 0
    outer loop
      vertex 1.8056 2.70228 3
      vertex 2.2981 2.2981 0
      vertex 1.8056 2.70228 0
    endloop
  endfacet
  facet normal 0 0 -1
    outer loop
      vertex 1.3 1.3 3
      vertex 2.0371 1.36115 3
      vertex 2.06978 1.3 3
    endloop
  endfacet
  facet normal -0 0 -1
    outer loop
      vertex 2.0371 1.36115 3
      vertex 1.3 1.3 3
      vertex 1.73241 1.73241 3
    endloop
  endfacet
  facet normal -0 0 -1
    outer loop
      vertex 1.73241 1.73241 3
      vertex 1.3 1.3 3
      vertex 1.36115 2.0371 3
    endloop
  endfacet
  facet normal -0 0 -1
    outer loop
      vertex 1.36115 2.0371 3
      vertex 1.3 1.3 3
      vertex 1.3 2.06978 3
    endloop
  endfacet
  facet normal 0 0 -1
    outer loop
      vertex 6.7 1.3 3
      vertex 6.63885 2.0371 3
      vertex 6.7 2.06978 3
    endloop
  endfacet
  facet normal 0 0 -1
    outer loop
      vertex 6.7 1.3 3
      vertex 6.26759 1.73241 3
      vertex 6.63885 2.0371 3
    endloop
  endfacet
  facet normal 0 0 -1
    outer loop
      vertex 6.7 1.3 3
      vertex 5.9629 1.36115 3
      vertex 6.26759 1.73241 3
    endloop
  endfacet
  facet normal 0 -0 -1
    outer loop
      vertex 5.9629 1.36115 3
      vertex 6.7 1.3 3
      vertex 5.93022 1.3 3
    endloop
  endfacet
  facet normal 0 0 -1
    outer loop
      vertex 6.63885 5.9629 3
      vertex 6.7 6.7 3
      vertex 6.7 5.93022 3
    endloop
  endfacet
  facet normal 0 0 -1
    outer loop
      vertex 6.26759 6.26759 3
      vertex 6.7 6.7 3
      vertex 6.63885 5.9629 3
    endloop
  endfacet
  facet normal 0 0 -1
    outer loop
      vertex 5.9629 6.63885 3
      vertex 6.7 6.7 3
      vertex 6.26759 6.26759 3
    endloop
  endfacet
  facet normal -0 0 -1
    outer loop
      vertex 6.7 6.7 3
      vertex 5.9629 6.63885 3
      vertex 5.93022 6.7 3
    endloop
  endfacet
  facet normal 0 0 -1
    outer loop
      vertex 1.3 6.7 3
      vertex 2.0371 6.63885 3
      vertex 1.73241 6.26759 3
    endloop
  endfacet
  facet normal 0 0 -1
    outer loop
      vertex 1.3 6.7 3
      vertex 1.73241 6.26759 3
      vertex 1.36115 5.9629 3
    endloop
  endfacet
  facet normal 0 0 -1
    outer loop
      vertex 1.3 6.7 3
      vertex 1.36115 5.9629 3
      vertex 1.3 5.93022 3
    endloop
  endfacet
  facet normal 0 0 -1
    outer loop
      vertex 2.0371 6.63885 3
      vertex 1.3 6.7 3
      vertex 2.06978 6.7 3
    endloop
  endfacet
  facet normal 0 0 -1
    outer loop
      vertex 6.1944 2.70228 3
      vertex 6.7 5.02747 3
      vertex 6.7 2.97253 3
    endloop
  endfacet
  facet normal 0 0 -1
    outer loop
      vertex 6.1944 2.70228 3
      vertex 6.1944 5.29772 3
      vertex 6.7 5.02747 3
    endloop
  endfacet
  facet normal 0 0 -1
    outer loop
      vertex 5.7019 2.2981 3
      vertex 6.1944 5.29772 3
      vertex 6.1944 2.70228 3
    endloop
  endfacet
  facet normal 0 0 -1
    outer loop
      vertex 5.7019 2.2981 3
      vertex 5.7019 5.7019 3
      vertex 6.1944 5.29772 3
    endloop
  endfacet
  facet normal 0 0 -1
    outer loop
      vertex 2.2981 2.2981 3
      vertex 5.7019 2.2981 3
      vertex 5.29772 1.8056 3
    endloop
  endfacet
  facet normal 0 0 -1
    outer loop
      vertex 5.7019 2.2981 3
      vertex 2.2981 2.2981 3
      vertex 5.7019 5.7019 3
    endloop
  endfacet
  facet normal 0 0 -1
    outer loop
      vertex 5.7019 5.7019 3
      vertex 2.2981 5.7019 3
      vertex 5.29772 6.1944 3
    endloop
  endfacet
  facet normal 0 0 -1
    outer loop
      vertex 2.70228 1.8056 3
      vertex 5.29772 1.8056 3
      vertex 5.02747 1.3 3
    endloop
  endfacet
  facet normal 0 0 -1
    outer loop
      vertex 2.70228 1.8056 3
      vertex 5.02747 1.3 3
      vertex 2.97253 1.3 3
    endloop
  endfacet
  facet normal 0 0 -1
    outer loop
      vertex 5.29772 1.8056 3
      vertex 2.70228 1.8056 3
      vertex 2.2981 2.2981 3
    endloop
  endfacet
  facet normal -0 0 -1
    outer loop
      vertex 5.7019 5.7019 3
      vertex 2.2981 2.2981 3
      vertex 2.2981 5.7019 3
    endloop
  endfacet
  facet normal -0 0 -1
    outer loop
      vertex 5.02747 6.7 3
      vertex 2.70228 6.1944 3
      vertex 2.97253 6.7 3
    endloop
  endfacet
  facet normal 0 -0 -1
    outer loop
      vertex 2.70228 6.1944 3
      vertex 5.29772 6.1944 3
      vertex 2.2981 5.7019 3
    endloop
  endfacet
  facet normal 0 0 -1
    outer loop
      vertex 5.29772 6.1944 3
      vertex 2.70228 6.1944 3
      vertex 5.02747 6.7 3
    endloop
  endfacet
  facet normal 0 0 -1
    outer loop
      vertex 1.8056 2.70228 3
      vertex 2.2981 5.7019 3
      vertex 2.2981 2.2981 3
    endloop
  endfacet
  facet normal 0 0 -1
    outer loop
      vertex 1.8056 2.70228 3
      vertex 1.8056 5.29772 3
      vertex 2.2981 5.7019 3
    endloop
  endfacet
  facet normal 0 0 -1
    outer loop
      vertex 1.3 2.97253 3
      vertex 1.8056 5.29772 3
      vertex 1.8056 2.70228 3
    endloop
  endfacet
  facet normal 0 0 -1
    outer loop
      vertex 1.8056 5.29772 3
      vertex 1.3 2.97253 3
      vertex 1.3 5.02747 3
    endloop
  endfacet
  facet normal -0.773011 -0.634393 0
    outer loop
      vertex 2.0371 1.36115 0
      vertex 1.73241 1.73241 3
      vertex 1.73241 1.73241 0
    endloop
  endfacet
  facet normal -0.773011 -0.634393 0
    outer loop
      vertex 1.73241 1.73241 3
      vertex 2.0371 1.36115 0
      vertex 2.0371 1.36115 3
    endloop
  endfacet
  facet normal -0.881921 -0.471396 0
    outer loop
      vertex 2.06978 1.3 0
      vertex 2.0371 1.36115 3
      vertex 2.0371 1.36115 0
    endloop
  endfacet
  facet normal -0.881921 -0.471396 0
    outer loop
      vertex 2.0371 1.36115 3
      vertex 2.06978 1.3 0
      vertex 2.06978 1.3 3
    endloop
  endfacet
  facet normal -0.471396 -0.881921 0
    outer loop
      vertex 1.3 2.06978 0
      vertex 1.36115 2.0371 3
      vertex 1.3 2.06978 3
    endloop
  endfacet
  facet normal -0.471396 -0.881921 -0
    outer loop
      vertex 1.36115 2.0371 3
      vertex 1.3 2.06978 0
      vertex 1.36115 2.0371 0
    endloop
  endfacet
  facet normal -0.634393 -0.773011 0
    outer loop
      vertex 1.36115 2.0371 0
      vertex 1.73241 1.73241 3
      vertex 1.36115 2.0371 3
    endloop
  endfacet
  facet normal -0.634393 -0.773011 -0
    outer loop
      vertex 1.73241 1.73241 3
      vertex 1.36115 2.0371 0
      vertex 1.73241 1.73241 0
    endloop
  endfacet
  facet normal -0.881921 0.471397 0
    outer loop
      vertex 5.02747 1.3 0
      vertex 5.29772 1.8056 3
      vertex 5.29772 1.8056 0
    endloop
  endfacet
  facet normal -0.881921 0.471397 0
    outer loop
      vertex 5.29772 1.8056 3
      vertex 5.02747 1.3 0
      vertex 5.02747 1.3 3
    endloop
  endfacet
  facet normal -0.77301 0.634394 0
    outer loop
      vertex 5.29772 1.8056 0
      vertex 5.7019 2.2981 3
      vertex 5.7019 2.2981 0
    endloop
  endfacet
  facet normal -0.77301 0.634394 0
    outer loop
      vertex 5.7019 2.2981 3
      vertex 5.29772 1.8056 0
      vertex 5.29772 1.8056 3
    endloop
  endfacet
  facet normal -0.471397 0.881921 0
    outer loop
      vertex 6.7 2.97253 0
      vertex 6.1944 2.70228 3
      vertex 6.7 2.97253 3
    endloop
  endfacet
  facet normal -0.471397 0.881921 0
    outer loop
      vertex 6.1944 2.70228 3
      vertex 6.7 2.97253 0
      vertex 6.1944 2.70228 0
    endloop
  endfacet
  facet normal -0.634394 0.77301 0
    outer loop
      vertex 6.1944 2.70228 0
      vertex 5.7019 2.2981 3
      vertex 6.1944 2.70228 3
    endloop
  endfacet
  facet normal -0.634394 0.77301 0
    outer loop
      vertex 5.7019 2.2981 3
      vertex 6.1944 2.70228 0
      vertex 5.7019 2.2981 0
    endloop
  endfacet
  facet normal 0.634393 -0.773011 0
    outer loop
      vertex 6.26759 1.73241 0
      vertex 6.63885 2.0371 3
      vertex 6.26759 1.73241 3
    endloop
  endfacet
  facet normal 0.634393 -0.773011 0
    outer loop
      vertex 6.63885 2.0371 3
      vertex 6.26759 1.73241 0
      vertex 6.63885 2.0371 0
    endloop
  endfacet
  facet normal 0.88192 -0.471399 0
    outer loop
      vertex 5.93022 1.3 3
      vertex 5.9629 1.36115 0
      vertex 5.9629 1.36115 3
    endloop
  endfacet
  facet normal 0.88192 -0.471399 0
    outer loop
      vertex 5.9629 1.36115 0
      vertex 5.93022 1.3 3
      vertex 5.93022 1.3 0
    endloop
  endfacet
  facet normal 0.773011 -0.634393 0
    outer loop
      vertex 5.9629 1.36115 3
      vertex 6.26759 1.73241 0
      vertex 6.26759 1.73241 3
    endloop
  endfacet
  facet normal 0.773011 -0.634393 0
    outer loop
      vertex 6.26759 1.73241 0
      vertex 5.9629 1.36115 3
      vertex 5.9629 1.36115 0
    endloop
  endfacet
  facet normal 0.471397 -0.881921 0
    outer loop
      vertex 6.63885 2.0371 0
      vertex 6.7 2.06978 3
      vertex 6.63885 2.0371 3
    endloop
  endfacet
  facet normal 0.471397 -0.881921 0
    outer loop
      vertex 6.7 2.06978 3
      vertex 6.63885 2.0371 0
      vertex 6.7 2.06978 0
    endloop
  endfacet
  facet normal 0.77301 -0.634394 0
    outer loop
      vertex 2.2981 5.7019 3
      vertex 2.70228 6.1944 0
      vertex 2.70228 6.1944 3
    endloop
  endfacet
  facet normal 0.77301 -0.634394 0
    outer loop
      vertex 2.70228 6.1944 0
      vertex 2.2981 5.7019 3
      vertex 2.2981 5.7019 0
    endloop
  endfacet
  facet normal 0.881921 -0.471397 0
    outer loop
      vertex 2.70228 6.1944 3
      vertex 2.97253 6.7 0
      vertex 2.97253 6.7 3
    endloop
  endfacet
  facet normal 0.881921 -0.471397 0
    outer loop
      vertex 2.97253 6.7 0
      vertex 2.70228 6.1944 3
      vertex 2.70228 6.1944 0
    endloop
  endfacet
  facet normal 0.471397 -0.881921 0
    outer loop
      vertex 1.3 5.02747 0
      vertex 1.8056 5.29772 3
      vertex 1.3 5.02747 3
    endloop
  endfacet
  facet normal 0.471397 -0.881921 0
    outer loop
      vertex 1.8056 5.29772 3
      vertex 1.3 5.02747 0
      vertex 1.8056 5.29772 0
    endloop
  endfacet
  facet normal 0.634394 -0.77301 0
    outer loop
      vertex 1.8056 5.29772 0
      vertex 2.2981 5.7019 3
      vertex 1.8056 5.29772 3
    endloop
  endfacet
  facet normal 0.634394 -0.77301 0
    outer loop
      vertex 2.2981 5.7019 3
      vertex 1.8056 5.29772 0
      vertex 2.2981 5.7019 0
    endloop
  endfacet
  facet normal -0.634393 0.773011 0
    outer loop
      vertex 1.73241 6.26759 0
      vertex 1.36115 5.9629 3
      vertex 1.73241 6.26759 3
    endloop
  endfacet
  facet normal -0.634393 0.773011 0
    outer loop
      vertex 1.36115 5.9629 3
      vertex 1.73241 6.26759 0
      vertex 1.36115 5.9629 0
    endloop
  endfacet
  facet normal -0.471399 0.88192 0
    outer loop
      vertex 1.36115 5.9629 0
      vertex 1.3 5.93022 3
      vertex 1.36115 5.9629 3
    endloop
  endfacet
  facet normal -0.471399 0.88192 0
    outer loop
      vertex 1.3 5.93022 3
      vertex 1.36115 5.9629 0
      vertex 1.3 5.93022 0
    endloop
  endfacet
  facet normal -0.773011 0.634393 0
    outer loop
      vertex 1.73241 6.26759 0
      vertex 2.0371 6.63885 3
      vertex 2.0371 6.63885 0
    endloop
  endfacet
  facet normal -0.773011 0.634393 0
    outer loop
      vertex 2.0371 6.63885 3
      vertex 1.73241 6.26759 0
      vertex 1.73241 6.26759 3
    endloop
  endfacet
  facet normal -0.881921 0.471397 0
    outer loop
      vertex 2.0371 6.63885 0
      vertex 2.06978 6.7 3
      vertex 2.06978 6.7 0
    endloop
  endfacet
  facet normal -0.881921 0.471397 0
    outer loop
      vertex 2.06978 6.7 3
      vertex 2.0371 6.63885 0
      vertex 2.0371 6.63885 3
    endloop
  endfacet
  facet normal -0.634394 -0.77301 0
    outer loop
      vertex 5.7019 5.7019 0
      vertex 6.1944 5.29772 3
      vertex 5.7019 5.7019 3
    endloop
  endfacet
  facet normal -0.634394 -0.77301 -0
    outer loop
      vertex 6.1944 5.29772 3
      vertex 5.7019 5.7019 0
      vertex 6.1944 5.29772 0
    endloop
  endfacet
  facet normal -0.881921 -0.471397 0
    outer loop
      vertex 5.29772 6.1944 0
      vertex 5.02747 6.7 3
      vertex 5.02747 6.7 0
    endloop
  endfacet
  facet normal -0.881921 -0.471397 0
    outer loop
      vertex 5.02747 6.7 3
      vertex 5.29772 6.1944 0
      vertex 5.29772 6.1944 3
    endloop
  endfacet
  facet normal -0.471397 -0.881921 0
    outer loop
      vertex 6.1944 5.29772 0
      vertex 6.7 5.02747 3
      vertex 6.1944 5.29772 3
    endloop
  endfacet
  facet normal -0.471397 -0.881921 -0
    outer loop
      vertex 6.7 5.02747 3
      vertex 6.1944 5.29772 0
      vertex 6.7 5.02747 0
    endloop
  endfacet
  facet normal -0.77301 -0.634394 0
    outer loop
      vertex 5.7019 5.7019 0
      vertex 5.29772 6.1944 3
      vertex 5.29772 6.1944 0
    endloop
  endfacet
  facet normal -0.77301 -0.634394 0
    outer loop
      vertex 5.29772 6.1944 3
      vertex 5.7019 5.7019 0
      vertex 5.7019 5.7019 3
    endloop
  endfacet
  facet normal 0.634393 0.773011 -0
    outer loop
      vertex 6.63885 5.9629 0
      vertex 6.26759 6.26759 3
      vertex 6.63885 5.9629 3
    endloop
  endfacet
  facet normal 0.634393 0.773011 0
    outer loop
      vertex 6.26759 6.26759 3
      vertex 6.63885 5.9629 0
      vertex 6.26759 6.26759 0
    endloop
  endfacet
  facet normal 0.881923 0.471394 0
    outer loop
      vertex 5.9629 6.63885 3
      vertex 5.93022 6.7 0
      vertex 5.93022 6.7 3
    endloop
  endfacet
  facet normal 0.881923 0.471394 0
    outer loop
      vertex 5.93022 6.7 0
      vertex 5.9629 6.63885 3
      vertex 5.9629 6.63885 0
    endloop
  endfacet
  facet normal 0.773011 0.634393 0
    outer loop
      vertex 6.26759 6.26759 3
      vertex 5.9629 6.63885 0
      vertex 5.9629 6.63885 3
    endloop
  endfacet
  facet normal 0.773011 0.634393 0
    outer loop
      vertex 5.9629 6.63885 0
      vertex 6.26759 6.26759 3
      vertex 6.26759 6.26759 0
    endloop
  endfacet
  facet normal 0.471394 0.881923 -0
    outer loop
      vertex 6.7 5.93022 0
      vertex 6.63885 5.9629 3
      vertex 6.7 5.93022 3
    endloop
  endfacet
  facet normal 0.471394 0.881923 0
    outer loop
      vertex 6.63885 5.9629 3
      vertex 6.7 5.93022 0
      vertex 6.63885 5.9629 0
    endloop
  endfacet
  facet normal 1 -0 0
    outer loop
      vertex 1.3 5.93022 3
      vertex 1.3 6.7 0
      vertex 1.3 6.7 3
    endloop
  endfacet
  facet normal 1 0 0
    outer loop
      vertex 1.3 6.7 0
      vertex 1.3 5.93022 3
      vertex 1.3 5.93022 0
    endloop
  endfacet
  facet normal 1 -0 0
    outer loop
      vertex 1.3 1.3 3
      vertex 1.3 2.06978 0
      vertex 1.3 2.06978 3
    endloop
  endfacet
  facet normal 1 0 0
    outer loop
      vertex 1.3 2.06978 0
      vertex 1.3 1.3 3
      vertex 1.3 1.3 0
    endloop
  endfacet
  facet normal 1 -0 0
    outer loop
      vertex 1.3 2.97253 3
      vertex 1.3 5.02747 0
      vertex 1.3 5.02747 3
    endloop
  endfacet
  facet normal 1 0 0
    outer loop
      vertex 1.3 5.02747 0
      vertex 1.3 2.97253 3
      vertex 1.3 2.97253 0
    endloop
  endfacet
  facet normal -1 0 0
    outer loop
      vertex 6.7 5.93022 0
      vertex 6.7 6.7 3
      vertex 6.7 6.7 0
    endloop
  endfacet
  facet normal -1 -0 0
    outer loop
      vertex 6.7 6.7 3
      vertex 6.7 5.93022 0
      vertex 6.7 5.93022 3
    endloop
  endfacet
  facet normal -1 0 0
    outer loop
      vertex 6.7 1.3 0
      vertex 6.7 2.06978 3
      vertex 6.7 2.06978 0
    endloop
  endfacet
  facet normal -1 -0 0
    outer loop
      vertex 6.7 2.06978 3
      vertex 6.7 1.3 0
      vertex 6.7 1.3 3
    endloop
  endfacet
  facet normal -1 0 0
    outer loop
      vertex 6.7 2.97253 0
      vertex 6.7 5.02747 3
      vertex 6.7 5.02747 0
    endloop
  endfacet
  facet normal -1 -0 0
    outer loop
      vertex 6.7 5.02747 3
      vertex 6.7 2.97253 0
      vertex 6.7 2.97253 3
    endloop
  endfacet
  facet normal 0 1 -0
    outer loop
      vertex 2.06978 1.3 0
      vertex 1.3 1.3 3
      vertex 2.06978 1.3 3
    endloop
  endfacet
  facet normal 0 1 0
    outer loop
      vertex 1.3 1.3 3
      vertex 2.06978 1.3 0
      vertex 1.3 1.3 0
    endloop
  endfacet
  facet normal 0 1 -0
    outer loop
      vertex 6.7 1.3 0
      vertex 5.93022 1.3 3
      vertex 6.7 1.3 3
    endloop
  endfacet
  facet normal 0 1 0
    outer loop
      vertex 5.93022 1.3 3
      vertex 6.7 1.3 0
      vertex 5.93022 1.3 0
    endloop
  endfacet
  facet normal 0 1 -0
    outer loop
      vertex 5.02747 1.3 0
      vertex 2.97253 1.3 3
      vertex 5.02747 1.3 3
    endloop
  endfacet
  facet normal 0 1 0
    outer loop
      vertex 2.97253 1.3 3
      vertex 5.02747 1.3 0
      vertex 2.97253 1.3 0
    endloop
  endfacet
  facet normal 0 -1 0
    outer loop
      vertex 1.3 6.7 0
      vertex 2.06978 6.7 3
      vertex 1.3 6.7 3
    endloop
  endfacet
  facet normal 0 -1 -0
    outer loop
      vertex 2.06978 6.7 3
      vertex 1.3 6.7 0
      vertex 2.06978 6.7 0
    endloop
  endfacet
  facet normal 0 -1 0
    outer loop
      vertex 5.93022 6.7 0
      vertex 6.7 6.7 3
      vertex 5.93022 6.7 3
    endloop
  endfacet
  facet normal 0 -1 -0
    outer loop
      vertex 6.7 6.7 3
      vertex 5.93022 6.7 0
      vertex 6.7 6.7 0
    endloop
  endfacet
  facet normal 0 -1 0
    outer loop
      vertex 2.97253 6.7 0
      vertex 5.02747 6.7 3
      vertex 2.97253 6.7 3
    endloop
  endfacet
  facet normal 0 -1 -0
    outer loop
      vertex 5.02747 6.7 3
      vertex 2.97253 6.7 0
      vertex 5.02747 6.7 0
    endloop
  endfacet
  facet normal -1 0 0
    outer loop
      vertex 0.0999994 0.0999994 0
      vertex 0.0999994 7.9 9.6
      vertex 0.0999994 7.9 0
    endloop
  endfacet
  facet normal -1 -0 0
    outer loop
      vertex 0.0999994 7.9 9.6
      vertex 0.0999994 0.0999994 0
      vertex 0.0999994 0.0999994 9.6
    endloop
  endfacet
  facet normal 1 -0 0
    outer loop
      vertex 7.9 0.0999994 9.6
      vertex 7.9 7.9 0
      vertex 7.9 7.9 9.6
    endloop
  endfacet
  facet normal 1 0 0
    outer loop
      vertex 7.9 7.9 0
      vertex 7.9 0.0999994 9.6
      vertex 7.9 0.0999994 0
    endloop
  endfacet
  facet normal 0 1 -0
    outer loop
      vertex 7.9 7.9 0
      vertex 0.0999994 7.9 9.6
      vertex 7.9 7.9 9.6
    endloop
  endfacet
  facet normal 0 1 0
    outer loop
      vertex 0.0999994 7.9 9.6
      vertex 7.9 7.9 0
      vertex 0.0999994 7.9 0
    endloop
  endfacet
  facet normal 0 -1 0
    outer loop
      vertex 0.0999994 0.0999994 0
      vertex 7.9 0.0999994 9.6
      vertex 0.0999994 0.0999994 9.6
    endloop
  endfacet
  facet normal 0 -1 -0
    outer loop
      vertex 7.9 0.0999994 9.6
      vertex 0.0999994 0.0999994 0
      vertex 7.9 0.0999994 0
    endloop
  endfacet
endsolid OpenSCAD_Model
